<?xml version="1.0" standalone="no"?>
<!DOCTYPE svg PUBLIC "-//W3C//DTD SVG 20010904//EN"
 "http://www.w3.org/TR/2001/REC-SVG-20010904/DTD/svg10.dtd">
<svg version="1.0" xmlns="http://www.w3.org/2000/svg"
 width="213.000000pt" height="213.000000pt" viewBox="0 0 213.000000 213.000000"
 preserveAspectRatio="xMidYMid meet">
<metadata>
Created by potrace 1.14, written by Peter Selinger 2001-2017
</metadata>
<g transform="translate(0.000000,213.000000) scale(0.100000,-0.100000)"
fill="#000000" stroke="none">
<path d="M744 1826 c-111 -39 -186 -189 -180 -360 3 -100 28 -174 79 -232 104
-118 259 -64 327 114 25 66 30 94 31 169 1 115 -25 194 -86 262 -46 50 -111
69 -171 47z"/>
<path d="M1285 1831 c-66 -21 -117 -77 -150 -166 -28 -74 -26 -230 4 -308 116
-299 401 -219 415 116 7 181 -92 347 -216 360 -18 2 -42 1 -53 -2z"/>
<path d="M300 1333 c-115 -49 -190 -214 -177 -390 14 -192 143 -306 271 -241
45 23 50 28 90 80 106 140 104 394 -4 509 -48 51 -119 68 -180 42z"/>
<path d="M1720 1334 c-84 -35 -142 -154 -142 -289 0 -251 174 -431 325 -335
35 22 52 43 78 96 33 66 34 73 34 179 -1 90 -5 120 -23 166 -60 150 -172 226
-272 183z"/>
<path d="M1005 1190 c-51 -12 -71 -27 -141 -112 -37 -46 -70 -85 -73 -88 -3
-3 -22 -25 -42 -50 -42 -53 -137 -148 -266 -268 -51 -47 -99 -100 -108 -119
-34 -71 -11 -180 47 -225 57 -43 88 -49 193 -34 96 13 121 16 205 23 106 9
401 9 495 0 111 -10 167 -16 210 -23 130 -19 170 -5 203 69 25 57 9 157 -34
214 -14 18 -66 64 -117 102 -128 96 -254 227 -331 346 -36 55 -73 108 -83 119
-34 35 -110 58 -158 46z"/>
</g>
</svg>
