<?xml version="1.0" standalone="no"?>
<!DOCTYPE svg PUBLIC "-//W3C//DTD SVG 20010904//EN"
 "http://www.w3.org/TR/2001/REC-SVG-20010904/DTD/svg10.dtd">
<svg version="1.0" xmlns="http://www.w3.org/2000/svg"
 width="127.000000pt" height="127.000000pt" viewBox="0 0 127.000000 127.000000"
 preserveAspectRatio="xMidYMid meet">
<metadata>
Created by potrace 1.14, written by Peter Selinger 2001-2017
</metadata>
<g transform="translate(0.000000,127.000000) scale(0.100000,-0.100000)"
fill="#000000" stroke="none">
<path d="M250 1112 c-15 -5 -55 -42 -46 -42 3 0 1 -11 -4 -25 -5 -14 -12 -38
-15 -53 -10 -45 -10 -47 -18 -59 -5 -7 -6 -13 -2 -13 3 0 1 -9 -5 -20 -8 -15
-8 -20 1 -20 7 0 8 -4 2 -12 -5 -7 -10 -42 -12 -77 -2 -46 -11 -81 -31 -123
-16 -32 -26 -58 -23 -58 3 0 0 -7 -7 -15 -7 -8 -9 -15 -5 -15 4 0 3 -6 -3 -13
-6 -7 -12 -28 -14 -45 -1 -18 -5 -32 -8 -32 -9 0 -5 -140 4 -170 40 -130 106
-170 312 -186 199 -16 508 -8 650 17 57 10 71 17 112 58 68 66 94 172 70 284
-5 23 -9 48 -10 55 -1 6 -4 12 -8 12 -3 0 -6 9 -7 19 -1 11 -14 46 -28 78 -41
88 -46 103 -34 103 6 0 8 4 5 8 -3 5 -8 33 -11 63 -7 62 -8 70 -19 124 -5 22
-11 45 -15 50 -3 6 -6 17 -7 25 -1 23 -21 67 -34 75 -35 22 -62 12 -116 -43
-63 -63 -145 -170 -171 -222 -10 -19 -19 -37 -21 -40 -6 -9 -177 -6 -191 4 -7
6 -17 19 -22 31 -21 45 -69 112 -123 173 -16 17 -41 45 -56 62 -28 32 -67 50
-90 42z"/>
</g>
</svg>
