<?xml version="1.0" standalone="no"?>
<!DOCTYPE svg PUBLIC "-//W3C//DTD SVG 20010904//EN"
 "http://www.w3.org/TR/2001/REC-SVG-20010904/DTD/svg10.dtd">
<svg version="1.0" xmlns="http://www.w3.org/2000/svg"
 width="591.000000pt" height="591.000000pt" viewBox="0 0 591.000000 591.000000"
 preserveAspectRatio="xMidYMid meet">
<metadata>
Created by potrace 1.14, written by Peter Selinger 2001-2017
</metadata>
<g transform="translate(0.000000,591.000000) scale(0.100000,-0.100000)"
fill="#000000" stroke="none">
<path d="M0 2955 l0 -2955 2955 0 2955 0 0 2955 0 2955 -2955 0 -2955 0 0
-2955z m4893 2217 c129 -52 246 -176 284 -300 17 -54 18 -167 18 -1917 0
-1797 -1 -1862 -19 -1915 -51 -150 -156 -255 -306 -306 -53 -18 -118 -19
-1915 -19 -1750 0 -1863 1 -1917 18 -124 38 -248 155 -300 284 l-23 58 -3
1864 c-3 2057 -7 1912 59 2028 32 55 130 153 182 180 18 9 57 24 87 34 52 17
155 18 1925 16 l1870 -2 58 -23z"/>
<path d="M1087 5129 c-149 -35 -272 -159 -306 -310 -7 -29 -11 -677 -11 -1875
0 -1799 0 -1833 20 -1895 36 -117 139 -220 255 -259 59 -19 95 -19 1910 -20
2012 -1 1889 -5 1988 53 52 31 128 111 155 163 46 90 45 30 43 1974 -2 1807
-2 1846 -21 1905 -39 116 -142 219 -259 255 -62 20 -95 20 -1900 19 -1041 -1
-1852 -5 -1874 -10z m2152 -371 c39 -15 73 -38 112 -77 79 -80 95 -127 104
-317 4 -83 4 -161 0 -173 -6 -19 -14 -21 -80 -21 -58 0 -74 3 -79 16 -4 10 -6
81 -5 159 1 172 -11 207 -88 252 l-48 28 -204 -3 c-118 -2 -213 -8 -225 -14
-28 -14 -75 -58 -89 -83 -7 -12 -14 -87 -17 -184 l-5 -165 -25 -6 c-14 -4 -50
-4 -80 -1 l-55 6 -3 144 c-3 159 11 239 53 303 58 88 149 145 248 156 33 4
144 6 245 4 158 -3 193 -6 241 -24z m883 -691 c29 -17 57 -44 73 -71 23 -39
25 -52 25 -164 0 -66 -4 -123 -9 -126 -14 -9 -2505 -11 -2519 -2 -8 5 -12 43
-12 119 1 155 28 213 125 258 38 18 84 19 1155 16 l1115 -2 47 -28z m13 -448
c7 -7 -7 -145 -43 -432 -69 -543 -231 -1776 -238 -1803 -9 -36 -65 -96 -108
-115 -39 -18 -83 -19 -794 -19 -733 0 -754 1 -792 20 -44 22 -75 52 -95 91
-13 24 -129 864 -245 1764 -64 500 -55 455 -90 455 -17 0 -30 -3 -30 -8 0 -4
25 -203 54 -442 30 -239 91 -733 136 -1097 47 -389 87 -677 96 -698 22 -55 88
-120 147 -146 l52 -24 775 0 775 0 49 24 c27 14 64 40 82 58 68 68 69 75 134
600 111 897 206 1653 216 1711 6 31 5 32 -30 32 -29 0 -36 4 -36 20 0 17 7 20
50 20 33 0 52 -5 56 -14 5 -13 -39 -377 -147 -1201 -125 -964 -139 -1054 -160
-1101 -28 -59 -89 -118 -157 -151 l-57 -28 -780 0 -780 0 -55 26 c-73 34 -120
76 -154 138 -25 48 -33 97 -121 753 -150 1119 -206 1561 -198 1569 15 15 153
16 1308 12 777 -2 1173 -7 1180 -14z"/>
<path d="M2705 4722 c-66 -23 -117 -63 -154 -120 -40 -63 -50 -115 -51 -259
l0 -123 35 0 35 0 0 137 c0 158 13 198 81 256 58 51 94 57 310 57 174 0 199
-3 239 -21 56 -25 86 -53 113 -104 18 -34 22 -61 25 -182 l4 -143 35 0 35 0
-4 153 c-3 146 -5 154 -33 206 -37 66 -92 115 -162 141 -47 18 -77 20 -256 20
-165 -1 -211 -4 -252 -18z"/>
<path d="M2838 4050 c-997 -5 -1007 -5 -1034 -26 -59 -43 -69 -68 -72 -175
l-4 -99 1159 -2 c637 -1 1189 -2 1227 -2 l69 -1 -2 99 c-1 60 -8 110 -16 125
-34 68 -94 91 -225 88 -52 -1 -548 -4 -1102 -7z"/>
<path d="M2858 3583 c-858 -3 -1038 -5 -1038 -16 0 -8 31 -265 69 -573 39
-307 97 -788 131 -1069 39 -325 67 -524 78 -549 10 -23 32 -49 56 -65 l40 -26
740 -3 c510 -2 753 0 778 8 49 14 94 53 107 93 6 18 36 237 66 487 59 487 202
1620 212 1683 l6 37 -104 -2 c-57 -2 -571 -4 -1141 -5z m181 -365 c62 -16 141
-96 164 -167 16 -49 17 -97 12 -555 -4 -276 -11 -521 -16 -545 -24 -108 -112
-180 -229 -189 -61 -4 -76 -1 -124 22 -31 15 -69 44 -86 64 -58 71 -59 77 -62
668 l-3 540 30 49 c36 59 96 103 162 120 49 13 76 12 152 -7z m-653 -9 c60
-23 106 -62 143 -122 22 -36 24 -60 52 -515 35 -578 35 -603 8 -662 -52 -116
-180 -175 -304 -140 -59 17 -137 86 -160 142 -13 33 -27 165 -56 548 -22 278
-37 523 -34 545 8 59 58 139 108 174 79 54 153 63 243 30z m1334 -10 c60 -27
98 -64 126 -124 29 -61 30 -103 9 -380 -8 -110 -24 -321 -35 -470 -19 -245
-23 -275 -46 -322 -80 -166 -310 -190 -421 -45 -64 84 -63 63 -17 772 27 423
30 439 88 507 65 78 200 106 296 62z"/>
<path d="M2847 3128 c-30 -21 -55 -50 -70 -78 -22 -45 -22 -46 -22 -582 l0
-536 30 -43 c43 -61 104 -90 181 -86 77 4 131 37 170 102 l27 46 -2 517 c-1
341 -6 530 -13 554 -14 48 -59 101 -102 122 -19 9 -59 16 -93 16 -50 0 -66 -5
-106 -32z m173 -26 c19 -9 45 -33 58 -52 l24 -35 -4 -520 c-3 -499 -4 -521
-23 -554 -23 -39 -77 -71 -120 -71 -41 0 -97 31 -117 66 -25 44 -27 81 -30
599 -3 463 -2 481 17 513 38 65 124 89 195 54z"/>
<path d="M2923 3035 c-19 -8 -34 -23 -38 -37 -8 -35 -25 -588 -25 -815 l0
-203 28 -31 c41 -46 94 -45 135 1 l30 34 -6 430 c-4 237 -10 469 -14 515 -6
79 -8 84 -37 102 -36 22 -32 22 -73 4z"/>
<path d="M2225 3159 c-86 -32 -135 -106 -135 -205 0 -32 14 -267 30 -522 22
-339 34 -473 46 -500 61 -146 253 -176 353 -55 56 67 56 69 12 630 -42 537
-44 547 -95 598 -54 55 -145 78 -211 54z m146 -72 c57 -37 66 -70 78 -287 7
-107 14 -224 17 -260 2 -36 11 -175 20 -308 14 -232 14 -245 -3 -280 -51 -102
-186 -106 -245 -6 -14 24 -24 120 -53 496 -19 257 -35 489 -35 515 0 120 126
194 221 130z"/>
<path d="M2233 3026 c-33 -29 -33 -9 -8 -416 43 -685 38 -640 69 -666 38 -33
98 -33 131 1 19 18 25 35 25 70 0 40 -30 444 -60 800 -5 66 -10 133 -10 148 0
39 -49 87 -89 87 -17 0 -42 -10 -58 -24z"/>
<path d="M3533 3154 c-47 -23 -100 -86 -112 -131 -5 -21 -12 -76 -15 -123 -3
-47 -20 -270 -37 -496 -34 -455 -34 -465 24 -531 105 -120 301 -85 357 63 19
48 82 1041 69 1086 -12 48 -60 103 -110 129 -47 23 -131 25 -176 3z m167 -74
c48 -34 63 -81 56 -174 -4 -44 -20 -265 -36 -491 -16 -225 -34 -427 -40 -447
-32 -115 -201 -126 -250 -16 -19 43 -19 47 10 503 17 253 32 484 36 513 13
117 132 177 224 112z"/>
<path d="M3583 3050 c-50 -21 -52 -33 -88 -506 -43 -569 -43 -558 -18 -592 27
-36 72 -48 108 -31 60 30 62 36 84 399 12 184 23 355 25 380 3 25 8 101 12
171 6 122 6 126 -17 152 -26 30 -72 42 -106 27z"/>
</g>
</svg>
