<?xml version="1.0" standalone="no"?>
<!DOCTYPE svg PUBLIC "-//W3C//DTD SVG 20010904//EN"
 "http://www.w3.org/TR/2001/REC-SVG-20010904/DTD/svg10.dtd">
<svg version="1.0" xmlns="http://www.w3.org/2000/svg"
 width="343.000000pt" height="343.000000pt" viewBox="0 0 343.000000 343.000000"
 preserveAspectRatio="xMidYMid meet">
<metadata>
Created by potrace 1.14, written by Peter Selinger 2001-2017
</metadata>
<g transform="translate(0.000000,343.000000) scale(0.100000,-0.100000)"
fill="#000000" stroke="none">
<path d="M868 3334 c-34 -18 -51 -73 -73 -229 -24 -169 -10 -500 23 -558 14
-23 14 -32 3 -60 -7 -17 -19 -57 -27 -87 -8 -30 -24 -86 -36 -123 -12 -38 -23
-83 -24 -100 -1 -18 -2 -32 -4 -32 -1 0 -3 -25 -4 -56 -2 -31 -6 -61 -10 -67
-3 -6 -2 -14 4 -17 7 -4 8 -28 5 -63 -12 -108 -13 -347 -3 -442 15 -150 17
-159 27 -177 5 -10 7 -32 5 -48 -2 -17 -6 -76 -9 -130 -7 -134 -28 -295 -58
-440 -14 -66 -28 -174 -32 -239 -3 -66 -12 -147 -20 -180 -8 -34 -17 -99 -20
-146 -3 -47 -8 -97 -10 -112 l-4 -28 1210 0 c1084 0 1211 2 1205 15 -3 9 -10
46 -16 83 -14 89 -57 282 -80 357 -9 33 -23 80 -31 105 -7 25 -23 61 -36 80
-13 19 -23 41 -23 48 0 8 -13 32 -28 55 -15 23 -32 49 -37 58 -29 47 -67 100
-84 116 -54 50 -80 95 -87 151 -4 31 -7 62 -5 67 6 21 0 139 -8 149 -18 23
-20 67 -7 128 14 62 32 228 28 258 -1 8 7 40 18 70 27 76 38 234 23 340 -6 47
-12 117 -12 157 -1 39 -5 74 -10 77 -5 4 -12 24 -16 46 -5 31 -2 46 14 69 12
16 24 43 27 60 4 17 11 34 15 37 5 3 9 32 9 64 0 37 8 79 21 112 19 46 22 80
27 250 l5 197 -34 30 c-74 68 -189 21 -384 -160 -110 -102 -120 -109 -135
-103 -28 13 -173 26 -320 29 -80 1 -174 8 -210 14 -36 6 -123 14 -195 18 -117
6 -131 8 -150 29 -34 37 -69 85 -85 115 -24 45 -132 165 -165 183 -16 9 -41
23 -55 31 -32 19 -87 18 -122 -1z"/>
<path d="M3032 130 c0 -14 2 -19 5 -12 2 6 2 18 0 25 -3 6 -5 1 -5 -13z"/>
<path d="M511 58 c-1 -58 -1 -58 29 -58 27 0 29 3 28 35 -1 22 -6 35 -15 35
-7 0 -13 6 -13 13 0 8 -3 8 -9 -2 -7 -11 -10 -9 -14 10 -2 13 -5 -2 -6 -33z"/>
<path d="M453 35 c0 -22 2 -30 4 -17 2 12 2 30 0 40 -3 9 -5 -1 -4 -23z"/>
<path d="M3060 15 c-11 -13 -7 -15 28 -15 33 0 40 3 36 15 -4 8 -16 15 -29 15
-12 0 -28 -7 -35 -15z"/>
</g>
</svg>
